<?xml version="1.0" encoding="UTF-8"?>
<!-- Generator: Adobe Illustrator 21.0.0, SVG Export Plug-In . SVG Version: 6.00 Build 0)  -->
<svg version="1.1" id="Capa_1" xmlns="http://www.w3.org/2000/svg" xmlns:xlink="http://www.w3.org/1999/xlink" x="0px" y="0px" viewBox="0 0 500 185.4" style="enable-background:new 0 0 500 185.4;" xml:space="preserve">
<style type="text/css">
	.st0{fill:#2A388F;}
	.st1{fill:#33BBED;}
	.st2{fill:#BFD530;}
	.st3{fill:#92C5EB;}
	.st4{fill:#466AA6;}
	.st5{fill:#F58720;}
</style>
<g>
	<path class="st0" d="M49.5,152c-5.2,0-10-0.6-14.2-1.7c-4.4-1.2-8.2-3.2-11.3-6.1c-3.1-2.9-5.6-6.7-7.4-11.4   c-1.7-4.6-2.6-10.5-2.6-17.5V61.3H1.4c-0.8,0-1.4-0.6-1.4-1.4V31.4c0-0.8,0.6-1.4,1.4-1.4H14V1.4C14,0.6,14.6,0,15.4,0h33.2   c0.8,0,1.4,0.6,1.4,1.4v28.5h26.1c0.8,0,1.4,0.6,1.4,1.4v28.4c0,0.8-0.6,1.4-1.4,1.4H50.1v48.8c0,6.8,2.9,10,9.3,10   c5.5,0,10.8-1.4,15.7-4.2c0.2-0.1,0.5-0.2,0.7-0.2c0.3,0,0.5,0.1,0.7,0.2c0.4,0.3,0.7,0.7,0.7,1.2v26.7c0,0.5-0.3,1-0.7,1.2   c-3.6,2.1-7.6,3.8-11.9,5.1C60.2,151.3,55.2,152,49.5,152"/>
	<path class="st0" d="M150.1,185.4c-9.7,0-19.1-1.1-27.9-3.2c-8.8-2.1-17.1-5.2-24.6-9.2c-0.7-0.4-1-1.2-0.6-1.9l11.4-24.9   c0.2-0.4,0.5-0.6,0.9-0.8c0.1-0.1,0.3-0.1,0.5-0.1c0.2,0,0.5,0.1,0.7,0.2c6,3.3,12.1,5.9,18.2,7.8c6,1.8,13,2.8,20.7,2.8   c10.9,0,19.1-2.6,24.2-7.7c5.2-5.1,7.8-12.8,7.8-22.8v-1.8c-4.3,4.7-9,8.5-14,11.4c-6,3.5-13.7,5.2-22.8,5.2   c-7,0-13.8-1.2-20.2-3.7c-6.4-2.5-12.2-6.1-17.1-10.9c-4.9-4.8-8.9-10.7-11.8-17.6c-2.9-6.9-4.4-14.9-4.4-23.8v-0.4   c0-8.9,1.5-16.9,4.5-23.9c3-6.9,7-12.8,11.9-17.6c4.9-4.8,10.7-8.5,17.1-10.9c6.4-2.5,13.1-3.7,20-3.7c9.2,0,17,1.8,23,5.2   c4.9,2.8,9.4,6.2,13.4,10.1V31.4c0-0.8,0.6-1.4,1.4-1.4h33.2c0.8,0,1.4,0.6,1.4,1.4v90.7c0,21.1-5.1,37-15.3,47.1   c-5.7,5.7-12.9,9.9-21.5,12.4C171.7,184.2,161.6,185.4,150.1,185.4 M154,58.2c-3.9,0-7.5,0.6-10.7,1.9c-3.2,1.2-6.1,3-8.5,5.3   c-2.4,2.3-4.3,5-5.7,8.2c-1.4,3.2-2.1,6.6-2.1,10.4v0.4c0,7.8,2.5,13.9,7.6,18.6c5.1,4.7,11.6,7.1,19.4,7.1c3.9,0,7.5-0.6,10.9-1.9   c3.3-1.2,6.2-3,8.6-5.3c2.4-2.3,4.3-5,5.7-8.2c1.4-3.2,2.1-6.6,2.1-10.4v-0.4c0-3.7-0.7-7.2-2.1-10.4c-1.4-3.2-3.3-5.9-5.7-8.2   c-2.4-2.3-5.3-4-8.6-5.3C161.6,58.8,157.9,58.2,154,58.2"/>
	<path class="st0" d="M281.2,152.2c-8.4,0-17.1-1.5-25.9-4.3c-8.8-2.9-17.3-7.5-25.2-13.7c-0.6-0.5-0.7-1.3-0.3-1.9l14.2-21.9   c0.2-0.3,0.6-0.6,0.9-0.6c0.1,0,0.2,0,0.3,0c0.3,0,0.6,0.1,0.9,0.3c6.3,4.6,12.6,8,18.8,10.3c6.1,2.3,12,3.4,17.3,3.4   c4.5,0,7.8-0.7,9.8-2.1c1.9-1.3,2.8-3,2.8-5.2V116c0-1.4-0.5-2.5-1.5-3.6c-1.2-1.2-2.8-2.2-4.9-3.1c-2.2-0.9-4.8-1.8-7.6-2.7   c-2.9-0.9-6-1.8-9.2-2.8c-4.1-1.2-8.3-2.6-12.5-4.3c-4.3-1.7-8.2-4-11.6-6.8c-3.5-2.8-6.4-6.3-8.6-10.4c-2.2-4.1-3.3-9.2-3.3-15.1   v-0.4c0-6.2,1.2-11.7,3.5-16.5c2.3-4.8,5.5-8.8,9.6-12.2c4-3.3,8.7-5.8,14-7.5c5.3-1.6,11.1-2.5,17.2-2.5c7.5,0,15.3,1.2,23.1,3.7   c7.7,2.4,15,5.8,21.5,10.1c0.6,0.4,0.8,1.2,0.5,1.9l-12.7,23c-0.2,0.3-0.5,0.6-0.9,0.7c-0.1,0-0.3,0.1-0.4,0.1   c-0.3,0-0.5-0.1-0.7-0.2c-5.7-3.3-11.4-5.9-16.8-7.9c-5.4-1.9-10.1-2.9-14.2-2.9c-3.7,0-6.5,0.7-8.3,2c-1.7,1.3-2.5,2.8-2.5,4.6   v0.4c0,1.2,0.5,2.3,1.5,3.2c1.2,1.1,2.8,2.2,4.9,3.3c2.1,1.1,4.6,2.1,7.4,3.1c2.9,1,5.9,2,9,3c4.1,1.3,8.3,2.9,12.6,4.7   c4.3,1.9,8.3,4.2,11.7,6.9c3.5,2.7,6.4,6.1,8.7,10c2.3,4,3.5,8.9,3.5,14.5v0.4c0,6.7-1.2,12.7-3.5,17.6c-2.4,4.9-5.7,9-9.9,12.2   c-4.2,3.2-9.2,5.6-14.8,7.1C293.6,151.4,287.6,152.2,281.2,152.2"/>
	<path class="st1" d="M418.6,136.9c-7.1,1.9-12.9,2-17.3,0.3c-21.6-8.3-39.1-27.6-40.8-44.7c-1-9.8,3.3-17.7,12.5-23.6   c3-1.9,6.4-3.7,10-5.5c5.3-2.5,11.2-4.7,17.6-6.6c1.2-0.4,2.4-0.7,3.7-1c20.3-5.4,42.6-6.9,62.8-4.2c8.3,1.1,16.1,2.9,23,5.4   c0.8,0.3,1.5,0.5,2.1,0.8c1.5,0.6,2.7,1.4,3.6,2.3c3.2,3.5,1.1,9.9-1.2,14.7c-10,20.9-42.6,49.3-68.4,59.5c-0.7,0.3-1.3,0.5-2,0.8   C422.4,135.8,420.4,136.4,418.6,136.9"/>
	<path class="st2" d="M402.5,48.6c21.2-5.7,44.5-7.2,65.7-4.4c8.6,1.2,16.6,3,23.8,5.6c0,0,0-0.1,0-0.1c-0.4-1.2-1.1-2.3-2.1-3.4   c-3.8-3.9-8.3-7.6-13.4-10.8c-15.6-10-36.1-16.4-53.5-16.3c-2.6,0-5.2,0.2-7.6,0.5c-15.6,2-19.7,15.7-16.1,30   C400.2,49.2,401.3,48.9,402.5,48.6"/>
	<path class="st3" d="M404.6,55.7c-1,0.3-2.1,0.6-3.1,0.9c2.3,5.4,5.7,10.6,9.9,15c3.3,3.5,9,5.3,15.8,5.9   c21.5,1.8,54.4-8.9,63-20.5c-6.9-2.5-14.7-4.3-23-5.4C447.1,48.8,424.8,50.3,404.6,55.7"/>
	<path class="st4" d="M494.7,74.8c0.4-0.9,0.9-1.9,1.2-2.9c-0.3-0.2-0.6-0.4-1-0.5c-1.1-0.5-2.4-0.7-4-0.6   c-5.4,0.4-11.2,1.5-16.9,3.3c-17.7,5.5-35.8,17.1-46.9,30.5c-1.7,2-3.2,4.1-4.6,6.2c-5.8,9.1-3.9,17.6,2.1,24.1   c0.5-0.2,1.1-0.4,1.6-0.6C452.1,124,484.7,95.6,494.7,74.8"/>
	<path class="st5" d="M431.3,140.3c7.8,4.9,18.4,7.6,28.8,6.9c4.8-0.3,9.8-3.5,14.6-8.3c14-14.2,26.2-42.8,25.3-58.1   C488.1,102.4,457.4,129.1,431.3,140.3"/>
</g>
</svg>